<?xml version="1.0" encoding="UTF-8" standalone="no"?>
<!-- Created with Inkscape (http://www.inkscape.org/) -->

<svg
   version="1.1"
   id="svg1"
   width="499.99997"
   height="500.00009"
   viewBox="0 0 499.99998 500.00007"
   sodipodi:docname="ISOTIPO SIN FONDO.svg"
   inkscape:version="1.4 (e7c3feb1, 2024-10-09)"
   xmlns:inkscape="http://www.inkscape.org/namespaces/inkscape"
   xmlns:sodipodi="http://sodipodi.sourceforge.net/DTD/sodipodi-0.dtd"
   xmlns="http://www.w3.org/2000/svg"
   xmlns:svg="http://www.w3.org/2000/svg">
  <sodipodi:namedview
     id="namedview1"
     pagecolor="#ffffff"
     bordercolor="#000000"
     borderopacity="0.25"
     inkscape:showpageshadow="2"
     inkscape:pageopacity="0.0"
     inkscape:pagecheckerboard="0"
     inkscape:deskcolor="#d1d1d1"
     inkscape:zoom="0.60870758"
     inkscape:cx="516.66844"
     inkscape:cy="182.35357"
     inkscape:window-width="1920"
     inkscape:window-height="1027"
     inkscape:window-x="0"
     inkscape:window-y="25"
     inkscape:window-maximized="0"
     inkscape:current-layer="g6"
     inkscape:export-bgcolor="#ffffff00">
    <inkscape:page
       x="0"
       y="0"
       width="499.99997"
       height="500.00006"
       id="page1"
       margin="0"
       bleed="0" />
  </sodipodi:namedview>
  <defs
     id="defs1">
    <inkscape:path-effect
       effect="simplify"
       id="path-effect5"
       is_visible="true"
       lpeversion="1.3"
       threshold="5"
       steps="1"
       smooth_angles="50.935252"
       helper_size="7.4100719"
       simplify_individual_paths="false"
       simplify_just_coalesce="false" />
  </defs>
  <g
     id="g1"
     transform="translate(-370.6393,-265.24585)">
    <g
       id="g9">
      <g
         id="g6"
         transform="matrix(1.7822792,0,0,1.8454561,-265.45617,1327.853)"
         style="stroke-width:0.551393">
        <path
           style="fill:#e1b46d;fill-opacity:1;stroke:#e1b46d;stroke-width:0.422935;stroke-opacity:1"
           d="m 487.15516,-305.64479 c -9.90555,-1.49897 -19.22642,-6.36184 -26.12073,-13.7215 -4.81689,-5.14202 -8.06794,-11.69855 -9.5516,-18.56139 -2.64783,-12.24793 1.39854,-25.00334 8.28958,-35.27756 3.62052,-5.39803 8.4087,-10.13706 10.72826,-16.31824 2.13434,-5.68759 1.0221,-12.13613 -1.9025,-17.34507 -4.147,-7.38615 -9.94742,-13.66576 -15.81119,-19.70402 -9.65174,-9.93894 -19.33329,-19.98994 -30.48591,-28.24967 -5.74695,-4.25625 -11.9241,-8.36761 -19.03593,-9.88693 -4.96087,-1.0598 -10.1991,0.45911 -14.13307,3.6331 -4.72528,3.81244 -8.66541,9.29348 -8.7429,15.58282 -0.083,6.73796 3.46217,12.88283 7.64162,17.90162 6.63052,7.9621 14.07395,15.19583 21.43449,22.47071 10.57625,10.45317 21.25002,20.80692 31.89174,31.19327 -2.66581,7.23291 -5.71992,14.46417 -6.15932,22.28664 -0.0669,1.19067 -0.13377,2.38133 -0.20065,3.57199 -22.07662,-21.70763 -42.6941,-45.04802 -66.48678,-64.86005 -0.86839,-0.7231 -1.48222,-1.63909 -2.09281,-2.58655 -4.12508,-6.40099 -8.24396,-13.15 -9.11617,-20.8925 -0.54453,-4.83378 0.17912,-9.68518 0.9659,-14.44218 0.73585,-4.44899 3.40142,-8.21077 5.75825,-11.93773 3.9159,-6.1924 9.26962,-11.24958 14.60352,-16.23802 7.05709,-6.60004 13.73023,-13.59547 20.6374,-20.35105 19.58247,-19.15269 39.311,-38.16446 59.50996,-56.66505 5.72971,-5.24795 11.7405,-10.44998 18.79095,-13.76599 4.24668,-1.99733 8.57659,-4.09524 13.21836,-4.87181 5.4593,-0.91333 11.15633,-1.3998 16.56955,-0.15778 3.70704,0.85054 7.33018,2.10754 10.76795,3.70995 7.06792,3.29451 12.98897,8.52106 18.65254,13.76846 11.73415,10.87188 23.15312,22.07785 34.63826,33.21083 15.88148,15.39451 32.30353,30.24911 47.68528,46.14207 8.64409,8.93137 15.53457,20.12625 17.43519,32.47075 0.77824,5.05471 0.88325,10.22032 0.40764,15.29347 -0.38319,4.08721 -1.68882,8.05656 -3.31253,11.80303 -3.08707,7.12294 -9.16916,12.20617 -14.8786,17.2031 -16.95022,14.8349 -33.22066,30.42154 -49.66081,45.81352 -12.99436,12.16588 -25.71361,24.64298 -39.15985,36.31186 -5.49346,4.76733 -11.29033,9.60345 -18.4422,11.6368 -7.5887,2.15755 -15.63796,2.9994 -23.46558,1.95497 -0.28957,-0.0386 -0.57871,-0.0805 -0.86731,-0.12587 z m 16.10766,-21.52317 c 3.8493,-1.1378 7.81273,-2.57458 10.80227,-5.25841 7.08683,-6.36212 13.78443,-13.14441 20.50038,-19.89251 10.72415,-10.7755 22.01993,-20.99375 32.36816,-32.12991 3.01442,-3.24393 5.93982,-6.64034 8.05824,-10.60511 0.98003,-1.83419 -0.12123,-2.93773 -1.90041,-4.0288 -2.28723,-1.40263 -4.46132,-3.00509 -6.97054,-4.01999 -3.42622,-1.38579 -6.39872,-3.60521 -9.13937,-6.05255 -9.90403,-8.84406 -19.41391,-18.13734 -28.45986,-27.85333 -8.23098,-8.84065 -16.27651,-18.03364 -22.30917,-28.55166 -4.36852,-7.61657 -7.38044,-16.40841 -6.31454,-25.30455 0.98385,-8.21142 5.01067,-15.68113 9.86025,-22.26187 5.25869,-7.13588 13.41599,-12.14053 17.40553,-20.03465 0.77232,-1.52819 -1.49926,-3.13025 -2.48898,-4.33151 -4.06428,-4.93291 -8.89253,-9.37832 -14.81373,-12.00673 -7.06476,-3.13602 -15.30493,-2.66847 -22.37534,0.28805 -5.49538,2.29792 -10.26593,5.97151 -14.59154,10.02191 -15.8758,14.86575 -31.71687,29.77046 -47.33543,44.90663 -2.63262,2.55132 -5.51836,4.89811 -7.76293,7.80033 -1.06481,1.3768 -0.28288,3.38113 1.42842,3.87498 4.53517,1.3088 8.63498,3.69137 12.71532,5.99166 3.06341,1.727 6.25324,3.27235 8.90898,5.64412 8.71339,7.78172 16.95479,16.07715 25.05212,24.49049 1.02586,1.06591 2.70341,2.75652 3.341,3.48477 -0.62491,-0.62997 0.67994,0.8129 0.97353,1.14916 4.7143,5.39941 9.6159,10.64075 14.16925,16.17584 3.22892,3.92511 6.61194,7.86227 8.35612,12.73411 2.12777,5.94327 1.57844,12.3324 1.74137,18.52248 0.0925,3.51404 -1.20813,6.80513 -2.04423,10.15833 -1.51681,6.08318 -4.56351,11.66598 -8.38049,16.64214 -3.48253,4.54013 -6.99957,9.15571 -9.04171,14.58775 -1.95575,5.20227 -2.18869,11.38157 0.80547,16.25836 3.29318,5.36384 9.13242,9.00756 15.16936,10.01548 4.04055,0.6746 8.28481,0.50425 12.2725,-0.41501 z m 97.79646,-90.59212 c 6.85991,-1.76154 12.38096,-7.45469 14.22568,-14.28295 1.52695,-5.652 1.38223,-12.34417 -2.12963,-17.00341 -3.3151,-4.39819 -7.19492,-8.33829 -11.00307,-12.30529 -15.37634,-16.01771 -30.63368,-32.19701 -47.03827,-47.16068 -3.26974,-2.98254 -6.03408,-6.76877 -10.02186,-8.73066 -1.89674,-0.93316 -3.69722,1.10196 -4.95575,2.26752 -4.60147,4.26154 -9.02245,8.78626 -12.67128,13.90989 -3.04139,4.27067 -4.60889,9.5015 -4.43304,14.76418 0.14051,4.20507 1.89752,8.1606 3.86415,11.79486 5.12058,9.46264 12.38688,17.54285 19.89318,25.15767 8.40261,8.52409 17.77231,16.04468 26.15425,24.58202 1.1076,1.12813 2.36378,2.06804 3.70871,2.89355 1.21432,0.74535 2.25563,1.88425 3.60967,2.30475 2.27683,0.70708 4.451,1.97113 6.82105,2.16636 4.04575,0.33327 8.12402,1.03209 12.1733,0.11025 0.60554,-0.13785 1.20459,-0.30213 1.80291,-0.46806 z"
           id="path2"
           sodipodi:nodetypes="sssssssssscsscsscsssssssssssssssssssssssssssssssssssssssscssssssssssssssssscccss"
           inkscape:path-effect="#path-effect5"
           inkscape:original-d="m 487.15516,-305.64479 c -9.78029,-1.5374 -18.2983,-5.74985 -24.65505,-12.19277 -3.72743,-3.77796 -5.54458,-6.30627 -7.78751,-10.83526 -5.72858,-11.56734 -5.42993,-24.88378 0.84291,-37.58452 1.80712,-3.65891 3.87928,-6.72183 9.64501,-14.2566 4.61143,-6.02628 6.42563,-10.39085 6.41771,-15.43959 -0.0144,-9.15216 -5.87468,-17.77358 -25.30747,-37.23107 -31.00334,-31.04273 -46.08002,-37.99608 -58.33639,-26.9047 -8.11643,7.34494 -9.72239,15.7384 -4.81835,25.18267 3.86186,7.43721 9.80827,13.79609 44.85785,47.96941 l 13.34315,13.00957 -2.10053,5.56097 c -2.791,7.38895 -3.75105,11.2469 -4.02866,16.1892 l -0.23078,4.10846 -18.60051,-18.26363 c -10.23027,-10.04501 -25.45358,-24.89372 -33.82958,-32.99714 l -15.22907,-14.73351 -2.67202,-4.21611 c -5.79573,-9.14492 -8.42329,-16.15252 -7.28366,-25.66156 0.92945,-7.75532 0.83043,-9.0097 3.60215,-13.84946 5.07842,-8.86753 9.51241,-14.16617 16.42621,-20.15624 5.1568,-4.46782 10.55809,-10.46869 27.28875,-26.74254 22.26113,-21.65333 52.81881,-50.27671 55.80151,-52.93068 5.65271,-5.02971 12.4109,-9.85618 17.06644,-12.18825 2.91914,-1.46227 7.48954,-3.28274 11.12195,-4.37953 3.01717,-0.91103 10.1274,-1.71857 16.41045,-1.01725 4.12926,0.46092 7.63289,2.05659 10.32718,3.00262 5.69761,2.00057 11.38894,5.52378 23.88643,17.18421 5.507,5.13815 11.29123,10.71489 51.77459,49.91733 12.86695,12.45983 24.57913,23.77241 26.02707,25.13907 7.82992,7.39039 14.15595,17.10795 17.31048,26.59099 2.25313,6.77328 2.68759,9.60511 2.65625,17.31353 -0.0252,6.18572 -0.1324,7.29164 -1.03182,10.63956 -2.48728,9.25847 -5.92606,14.4007 -14.62724,21.87298 -11.30283,9.70648 -23.35208,20.79915 -54.87508,50.51857 -37.64755,35.49356 -43.25021,40.37001 -50.24492,43.73229 -7.26153,3.49053 -20.00576,5.08599 -29.14745,3.64898 z m 16.10766,-21.52317 c 3.08732,-0.82651 7.22874,-2.77204 10.2099,-4.79636 1.50236,-1.02016 9.54847,-8.78124 20.85485,-20.11609 10.12481,-10.1503 23.52886,-23.44658 29.78677,-29.5473 10.99846,-10.72219 11.27801,-13.86876 11.27801,-15.75963 0,-1.08574 -1.09792,-0.65249 -4.35604,-3.00423 -3.50257,-2.52818 -6.9564,-3.14668 -10.57535,-5.88169 -6.47412,-4.8928 -26.67969,-24.66776 -36.70682,-35.92454 -19.6373,-22.04546 -26.41103,-36.91524 -23.40851,-51.3867 2.17096,-10.4635 7.8498,-19.20886 22.92452,-35.30351 2.28478,-2.43937 4.20362,-4.57354 4.26409,-4.74261 0.15978,-0.44676 -5.17814,-6.76619 -7.82063,-9.25866 -11.38075,-10.73459 -25.33047,-11.69963 -38.94165,-2.69398 -4.2554,2.81553 -4.65638,3.18165 -30.27729,27.64552 -8.94685,8.54281 -19.80588,18.84703 -24.13117,22.89827 -4.3253,4.05124 -8.18075,7.90182 -8.56769,8.55685 -0.84716,1.43413 -0.61047,2.73603 0.64725,3.56012 0.49774,0.32613 3.39008,0.99649 6.04488,2.3774 5.12654,2.66661 8.34884,4.37201 13.08368,7.03564 5.22828,2.94122 35.66994,34.55161 31.36655,30.20911 l 14.76442,16.79812 3.76228,4.5833 c 8.11578,9.88684 6.55417,16.86911 6.99111,26.24716 0.21903,4.70087 -0.98024,6.83554 -1.49239,9.20165 -1.48984,6.88298 -4.00193,12.4883 -7.81408,17.43585 -6.13829,7.9665 -7.1557,9.44648 -8.74127,12.71549 -5.77349,11.90339 -2.76206,21.7619 8.32208,27.24389 1.96646,0.97257 4.78346,2.01745 6.26,2.32194 3.23935,0.66804 8.94799,0.47499 12.2725,-0.41501 z m 97.79646,-90.59212 c 11.86381,-3.25089 17.81719,-15.71898 13.66323,-27.75162 -1.02751,-2.97637 -1.30368,-3.43311 -3.89881,-6.44835 -9.12695,-10.60443 -51.50808,-53.2146 -62.44816,-62.78566 -1.93083,-1.68921 -3.55099,-2.80852 -4.06525,-2.80852 -1.33919,0 -3.85691,2.0086 -8.70758,6.94678 -9.44969,9.62017 -12.59642,15.47323 -12.58371,23.40631 0.004,2.53703 0.23706,3.87043 1.11794,6.40168 3.05489,8.77838 10.47324,20.75814 34.49357,42.86161 l 15.9662,14.69207 5.35867,3.5776 6.91382,2.24464 5.94449,0.59132 c 3.7602,0.37404 6.78357,-0.52724 8.24559,-0.92786 z"
           inkscape:export-filename="../LOGO/ISOTIPO SIN FONDO.png"
           inkscape:export-xdpi="96"
           inkscape:export-ydpi="96" />
      </g>
    </g>
  </g>
</svg>
